<svg width="49" height="33" viewBox="0 0 49 33" fill="none" xmlns="http://www.w3.org/2000/svg">
<path d="M28.162 3.62317C21.8401 -0.0437012 11.5208 -0.0437012 5.14879 3.63319C2.15311 5.3564 0.500034 7.6307 0.500034 10.0252C0.490006 12.7904 2.6741 14.9745 5.06862 16.3571C11.3905 20.034 21.7199 20.034 28.0919 16.3571C30.5465 14.9545 32.7406 12.7603 32.7507 9.97513C32.7507 7.60067 31.1276 5.34644 28.162 3.62317ZM26.549 14.8643C24.0343 16.317 20.5176 17.1586 16.8808 17.1586C13.264 17.1586 9.75743 16.317 7.26275 14.8643C5.55953 13.8824 3.79621 12.2594 3.79621 10.2757C3.79621 8.63258 5.08868 6.93939 7.33289 5.63696C12.5827 2.59126 21.3792 2.59126 26.6091 5.63696C28.8133 6.91934 30.0756 8.59253 30.0756 10.2356C30.0756 12.2494 28.2722 13.8724 26.549 14.8643Z" fill="#B1FE33"/>
<path d="M29.848 17.3401C30.4493 16.9895 31.0475 16.9533 31.5316 17.2361L32.1654 17.6039C32.5595 16.8063 32.7709 15.9879 32.7709 15.1612L32.7637 13.4705C32.0133 14.6982 30.5976 16.1236 28.6189 17.2657C25.2905 19.1877 20.9255 20.1488 16.5667 20.1488C12.2069 20.1488 7.85322 19.1873 4.54513 17.2646C2.61957 16.1459 1.24204 14.7536 0.507324 13.5729L0.513439 15.2529C0.547806 23.2171 17.9322 27.4345 28.1165 21.5654C28.1408 21.5509 28.1653 21.5341 28.1897 21.5195C28.0551 21.2607 27.981 20.9455 27.981 20.588C27.981 19.3747 28.8014 17.9485 29.848 17.3401Z" fill="#B1FE33"/>
<path d="M7.33306 8.95834C12.6146 5.91282 21.357 5.91374 26.604 8.95834C27.6145 9.54514 28.4367 10.2196 29.0254 10.9385C29.0945 10.7022 29.13 10.4681 29.13 10.2379C29.13 8.9422 28.0362 7.56436 26.1299 6.45724C21.1947 3.5775 12.764 3.58447 7.80618 6.45724C5.85751 7.58142 4.73975 8.97449 4.73975 10.2794C4.73975 10.5158 4.77534 10.7532 4.84596 10.9898C5.44517 10.2548 6.28849 9.56251 7.33306 8.95834Z" fill="#B1FE33"/>
<path d="M31.0046 18.137C30.8238 18.0319 30.5542 18.1365 30.3717 18.242C29.642 18.6664 29.0244 19.7412 29.0244 20.588C29.0244 20.934 29.1294 21.1129 29.218 21.1608C29.0843 21.0829 31.2935 22.3683 31.6208 22.5588C31.9539 21.4406 32.7112 20.2486 33.4281 19.5449C33.5683 19.6264 31.2956 18.3061 31.0046 18.137Z" fill="#B1FE33"/>
<path d="M45.9308 25.3152C45.9329 25.314 46.2654 25.1457 46.3466 25.1109C46.2283 25.0442 42.11 22.7231 41.9624 22.638C40.1166 21.5784 36.5964 26.9632 38.3732 28.5266L42.8928 31.1115C42.6424 28.9738 44.1075 26.3682 45.9308 25.3152Z" fill="#B1FE33"/>
<path d="M39.9617 21.9353C40.1013 21.8553 40.2409 21.7855 40.3785 21.7259L36.4673 19.4733C36.3228 19.3892 36.1553 19.3474 35.9703 19.3473C34.4899 19.3481 32.4263 21.8957 32.4263 24.0897C32.4263 24.7573 32.626 25.2398 32.9888 25.4472L36.914 27.6921C36.682 25.6187 38.1558 22.9728 39.9617 21.9353Z" fill="#B1FE33"/>
<path d="M46.4576 26.2208C45.0634 27.0213 43.8966 29.0473 43.9098 30.6453C43.9098 32.0036 44.7208 32.5161 45.9501 31.8077C47.3371 31.0066 48.504 28.9847 48.5 27.3918C48.4959 26.0707 47.7248 25.4927 46.4576 26.2208Z" fill="#B1FE33"/>
</svg>
