<svg width="37" height="49" viewBox="0 0 37 49" fill="none" xmlns="http://www.w3.org/2000/svg">
<path d="M10.3302 33.745C6.935 35.7059 4.13918 40.5154 4.15018 44.4385C4.16098 48.1314 6.61336 49.5434 9.83751 47.6814C13.2558 45.7082 16.0274 40.9051 16.0159 36.9748C16.0052 33.277 13.5296 31.8985 10.3302 33.745ZM9.79396 35.9577C10.7965 35.3817 11.7564 35.9364 11.7671 37.0882C11.7671 38.0054 11.1378 39.0933 10.3379 39.5519C9.33535 40.1385 8.37545 39.5626 8.37545 38.4321C8.36483 37.5042 8.99406 36.427 9.79396 35.9577ZM12.8869 42.5382C12.8869 42.7302 12.7802 42.9115 12.6203 43.0075L8.07685 45.6312C7.91684 45.7272 7.7142 45.7272 7.54358 45.6312C7.38357 45.5352 7.27695 45.3539 7.27695 45.1619V44.8953C7.27695 43.2635 8.38612 41.3437 9.80463 40.5225C11.4258 39.5839 12.8763 40.4158 12.8869 42.2716V42.5382Z" fill="#B1FE33"/>
<path d="M12.296 15.7112L13.7588 16.5585C13.7532 16.5424 13.7515 16.5227 13.746 16.5064C13.0245 14.3836 13.4997 11.8235 14.334 9.72272C15.2473 7.4187 16.7586 5.22977 18.553 3.70483C19.9401 2.52476 21.2732 1.93688 22.3159 1.73287C22.3355 1.72903 22.3564 1.7192 22.376 1.71555L20.9184 0.867739C19.6696 0.143348 18.1059 0.593683 16.8548 1.31612C13.4328 3.29661 10.6629 8.09759 10.6795 12.0174C10.6795 13.7865 11.2534 15.0973 12.296 15.7112Z" fill="#B1FE33"/>
<path d="M28.7599 23.5726C27.0461 25.313 25.6983 27.6885 25.1029 30.0325C23.8137 35.1228 26.3469 38.1517 30.4616 35.7739C33.8768 33.8023 36.6458 29.0013 36.6343 25.0711C36.6195 20.0358 32.3433 19.938 28.7599 23.5726ZM30.4102 24.0551C31.4234 23.4792 32.3833 24.0338 32.3833 25.175C32.3833 26.1029 31.754 27.18 30.9541 27.6493C29.9516 28.2253 28.9917 27.6707 28.9917 26.5295C28.9917 25.6016 29.6103 24.5137 30.4102 24.0551ZM33.5031 30.6357C33.5031 30.8276 33.4072 31.0089 33.2365 31.105L28.7037 33.7179C28.6184 33.7713 28.5224 33.7926 28.4371 33.7926C28.1385 33.7926 27.9038 33.558 27.9038 33.2593V32.9927C27.8932 31.3609 29.0024 29.4305 30.4315 28.6092C32.042 27.6814 33.5031 28.5132 33.5031 30.369V30.6357Z" fill="#B1FE33"/>
<path d="M28.085 22.7539C29.3115 21.5274 30.8687 20.4076 32.6178 20.0556C32.6391 20.0556 32.6605 20.045 32.6925 20.0343L31.2313 19.1917C30.8047 18.9464 30.3247 18.8184 29.7915 18.8184C29.5781 18.8184 29.3649 18.8398 29.1409 18.8824L29.1302 15.7254C29.1302 15.5335 29.0236 15.3629 28.8636 15.2668C28.693 15.1709 28.4903 15.1709 28.3303 15.2668L19.0408 20.6315L19.0314 17.9708C19.3881 17.839 19.756 17.6787 20.1471 17.4527C23.5649 15.4795 26.3365 10.6796 26.3255 6.75296C26.3203 4.98274 25.7464 3.67717 24.7099 3.07092C24.7076 3.06962 24.705 3.06982 24.7028 3.06852L24.6799 3.0555C24.6737 3.05192 24.6668 3.04996 24.6605 3.04645C22.9652 2.10262 20.7298 3.25378 19.2286 4.52342C17.6436 5.86525 16.2949 7.77022 15.4403 9.79393C13.4101 14.6092 14.679 18.6506 17.9654 18.2395L17.9742 21.2501L8.1301 26.9241C7.95948 27.0201 7.86347 27.2014 7.86347 27.3934L7.87414 30.9556C3.87463 32.2248 0.35507 37.9414 0.365747 42.2396C0.365747 44.01 0.952329 45.3218 1.99751 45.9404L3.44799 46.783C3.43731 46.7617 3.43731 46.7404 3.43731 46.7297C3.20271 46.0471 3.0854 45.1192 3.07473 44.4367C3.07473 40.1918 6.09304 34.9658 9.7939 32.8221C10.3805 32.4808 11.2231 32.1181 12.0016 31.9582C12.023 31.9582 12.0443 31.9475 12.0656 31.9475L10.6045 31.0943C10.1245 30.817 9.55929 30.6997 8.94068 30.7423L8.93 27.7027L28.0637 16.6533L28.0744 19.2024C27.7757 19.3197 27.4771 19.4583 27.1678 19.6397C23.7442 21.6127 20.9712 26.4122 20.9819 30.337C20.9925 32.1075 21.5684 33.4193 22.603 34.0272L24.0642 34.8805C24.0642 34.8591 24.0642 34.8378 24.0535 34.8165C23.6482 33.6113 23.5309 31.9261 24.0642 29.8037C24.7254 27.2441 26.2079 24.6417 28.085 22.7539ZM20.1073 5.73199C21.1098 5.15609 22.0697 5.71071 22.0697 6.86252C22.0804 7.77979 21.4511 8.86761 20.6512 9.32622C19.6487 9.90219 18.6888 9.34757 18.6782 8.20637C18.6782 7.27849 19.3074 6.1906 20.1073 5.73199ZM17.5903 14.9362V14.6696C17.5903 13.0378 18.6995 11.1074 20.118 10.2861C21.7391 9.35824 23.1896 10.2008 23.1896 12.0459L23.2003 12.3126C23.2003 12.5045 23.0936 12.6858 22.9336 12.7818L18.3902 15.3948C18.3048 15.4481 18.2196 15.4695 18.1235 15.4695C17.8356 15.4695 17.5903 15.2349 17.5903 14.9362Z" fill="#B1FE33"/>
</svg>
