<svg width="48" height="41" viewBox="0 0 48 41" fill="none" xmlns="http://www.w3.org/2000/svg">
<path d="M7.09233 19.1064L29.7797 6.00523L25.2268 3.35759C25.0638 3.26587 24.7952 3.31071 24.4956 3.48294L2.27979 16.3117C2.38103 16.3705 7.40933 19.2904 7.09233 19.1064Z" fill="black"/>
<path d="M4.17999 22.7002L0 20.2712L0.0387261 34.7578C0.0438218 35.1013 0.13758 35.353 0.296051 35.4427L4.85095 38.0949L4.81018 23.0667L4.17999 22.7002Z" fill="black"/>
<path d="M6.15863 19.7727C6.05836 19.7144 0.929353 16.7369 1.25431 16.9256C0.629148 17.4101 0.122015 18.2899 0.0180664 19.0722L4.91787 21.9219C5.11883 21.1265 5.63273 20.2837 6.15863 19.7727Z" fill="black"/>
<path d="M26.2172 18.1204C26.2596 18.2789 26.3231 18.4387 26.39 18.598L37.0743 7.95779C36.8561 7.51646 36.6941 7.05015 36.5852 6.56665C22.6456 20.37 27.4534 15.6092 26.4133 16.6391C26.0469 16.9913 26.0922 17.633 26.2172 18.1204Z" fill="black"/>
<path d="M39.1637 10.3838C38.5627 9.95951 38.0514 9.44779 37.6343 8.87378C33.8003 12.692 30.7581 15.7217 26.9233 19.5406C27.3183 20.1008 27.8368 20.633 28.4421 21.0567C43.135 6.43048 38.0674 11.4751 39.1637 10.3838Z" fill="black"/>
<path d="M28.9034 22.5224C27.4489 21.8991 26.1037 20.5265 25.4787 19.1341C25.4743 19.1243 25.4684 19.115 25.4641 19.1052C25.4629 19.1023 25.4611 19.0995 25.4598 19.0967L24.2983 21.9136L25.894 23.6749L28.9034 22.5224Z" fill="black"/>
<path d="M14.1419 40.5473L14.2388 40.1212L15.4036 34.9993L9.99072 38.1317L14.1419 40.5473Z" fill="black"/>
<path d="M23.1367 24.7308L24.8482 24.0754L23.8577 22.9822L23.1367 24.7308Z" fill="black"/>
<path d="M38.7955 4.41336C38.793 4.40317 38.7904 4.39349 38.7874 4.3833L37.4961 5.66355C37.7196 8.15387 39.7042 10.2005 42.3832 10.5495L43.7091 9.24138C41.6349 8.75524 39.3966 6.63611 38.7955 4.41336Z" fill="black"/>
<path d="M45.7204 7.13392C45.7168 7.13297 45.7135 7.13284 45.71 7.13189C43.5836 6.56822 41.4678 4.45862 40.8962 2.32629C40.8376 2.1082 40.7974 1.89623 40.7744 1.69189L40.0396 2.42158C39.6289 2.82996 39.6578 3.58383 39.8068 4.1403C40.3363 6.11792 42.6689 8.24902 44.5443 8.29997C44.9748 8.31246 45.3314 8.21208 45.5652 7.98029L46.3036 7.24654C46.2922 7.2452 46.2799 7.24119 46.2685 7.23978C46.0907 7.21717 45.9082 7.18335 45.7204 7.13392Z" fill="black"/>
<path d="M47.8935 4.17994C47.4171 2.40159 45.5934 0.573826 43.8278 0.105546C42.2356 -0.314757 41.5036 0.557729 41.9042 2.05612C42.3715 3.7993 44.237 5.66172 45.9776 6.12286C47.5525 6.54012 48.2985 5.69219 47.8935 4.17994Z" fill="black"/>
<path d="M40.085 10.9386C38.9915 12.0271 44.046 6.99539 29.3911 21.5843C29.7135 21.716 29.9477 21.7974 30.2983 21.8253C30.6376 21.8524 31.0529 21.7827 31.2921 21.5445C44.1173 8.82969 40.9742 11.9457 41.4771 11.4471C41.155 11.3672 40.5218 11.1528 40.085 10.9386Z" fill="black"/>
<path d="M31.1165 22.7909L22.3971 26.1311L8.60235 34.0636C8.35525 34.2057 8.03529 34.1233 7.89 33.871C7.7463 33.6213 7.83242 33.3023 8.08261 33.1586L21.7831 25.2803C21.8261 25.176 25.166 17.0771 25.0986 17.2406C25.1362 16.6801 25.3578 16.2059 25.6841 15.8919L31.3468 10.2903L31.3371 7.45116C31.3371 6.70409 30.9446 6.54864 30.3491 6.8876L7.35599 20.1635C6.52619 20.6355 5.86031 21.8558 5.85401 22.743C5.85325 22.8507 5.89297 38.0576 5.8951 38.1604C5.8951 38.7814 6.19916 39.1131 6.88924 38.7209C8.71051 37.6695 15.741 33.5871 15.9453 33.4948C16.3633 33.2905 16.7699 33.6797 16.6828 34.0825L15.6436 38.653L20.8408 30.7378C20.8856 30.6695 20.9453 30.6129 21.0161 30.5721L29.8864 25.4481C30.7042 24.9783 31.3875 23.792 31.3789 22.8575V22.7067C31.3687 22.7108 31.3565 22.7115 31.3462 22.7154C31.2768 22.7427 31.2007 22.768 31.1165 22.7909ZM8.08159 23.5984L23.4696 14.7164C23.7172 14.5717 24.0377 14.6578 24.1825 14.9075C24.3267 15.1571 24.2411 15.4761 23.9914 15.6203L8.60337 24.5023C8.35646 24.645 8.03633 24.563 7.89051 24.3113C7.7463 24.0616 7.83191 23.7426 8.08159 23.5984ZM8.08159 28.3785L17.8421 22.7449C18.0907 22.5997 18.4097 22.6868 18.555 22.936C18.6992 23.1857 18.6135 23.5046 18.3639 23.6488L8.60337 29.2825C8.35646 29.4251 8.03633 29.3431 7.89051 29.0914C7.7463 28.8417 7.83191 28.5227 8.08159 28.3785Z" fill="black"/>
</svg>
