<svg width="37" height="49" viewBox="0 0 37 49" fill="none" xmlns="http://www.w3.org/2000/svg">
<path d="M22.4042 38.7811L22.4284 35.6736C22.3752 35.6917 22.3202 35.7036 22.2668 35.7209C19.4901 36.6154 16.4783 36.6247 13.6831 35.7387C13.6051 35.7138 13.525 35.696 13.4476 35.6697L13.4232 38.7615C13.4142 39.346 13.8472 39.9215 14.6416 40.3852C17.5577 42.0575 22.3725 40.8232 22.4042 38.7811Z" fill="#B1FE33"/>
<path d="M24.3529 35.7296C24.0608 35.562 23.7628 35.4114 23.4668 35.2805L23.4631 35.2819L23.4355 38.7927C23.3974 41.3931 19.592 42.4435 16.9032 42.1375C15.8931 42.0229 14.9253 41.7363 14.1253 41.2774C11.4849 39.7366 12.6979 37.9304 12.4185 35.3832C12.1648 35.5005 11.9503 35.6123 11.7589 35.7261C6.69933 38.6619 10.0628 43.1377 16.4006 43.8474C16.4815 43.8564 16.5644 43.8532 16.6457 43.861C24.7641 44.6358 30.2841 39.1691 24.3529 35.7296Z" fill="#B1FE33"/>
<path d="M26.435 42.1785C24.4126 44.1958 20.9353 44.9587 18.1015 44.9587C15.0069 44.9587 11.1373 44.0351 9.22933 41.6172L9.15578 43.764C9.13973 48.1226 19.2816 49.9991 24.2318 47.1252C25.8037 46.2109 26.6707 45.0297 26.6747 43.7988L26.7421 41.8639C26.7081 41.9025 26.6605 41.9365 26.625 41.9747C26.5616 42.0426 26.5031 42.112 26.435 42.1785Z" fill="#B1FE33"/>
<path d="M15.4699 15.0912C19.7755 15.5709 24.962 14.8344 28.411 12.2722C28.4644 12.2324 28.515 12.1916 28.5667 12.1512C23.5868 8.29626 14.1434 8.03921 8.5719 11.2759C8.10645 11.5475 7.69696 11.8202 7.33325 12.1016C7.43669 12.1594 10.0708 14.4899 15.4699 15.0912Z" fill="#B1FE33"/>
<path d="M36.5922 4.8913C36.5902 4.61694 36.4432 4.36365 36.2056 4.2262C35.9679 4.08929 35.6759 4.08728 35.4363 4.22369L30.8689 6.82098C29.7325 2.45425 22.7915 0.5 17.9013 0.5C12.8398 0.5 4.84268 2.79945 4.86933 7.85828C4.87612 9.22611 5.57838 10.4479 6.5525 11.4233C6.99396 11.0662 7.47687 10.7208 8.05329 10.3847C13.8993 6.98984 23.9853 7.16368 29.3455 11.4692C30.1281 10.6904 30.7164 9.80768 30.9367 8.72107C30.9506 8.65314 30.9647 8.58527 30.9752 8.51709C30.9755 8.51477 30.9754 8.51251 30.9758 8.51019C31.0166 8.49548 31.0592 8.49219 31.0983 8.47003L35.0536 6.22101L35.0556 6.64087C35.0646 9.58221 33.0845 13.2192 31.0238 15.7172V11.0829C28.4705 14.8211 22.5459 16.2445 17.9974 16.2464C17.9945 16.2464 17.9917 16.2466 17.9888 16.2466C13.2995 16.2466 7.3932 14.7375 4.86933 11.0267V17.5017L0.784124 19.8606C0.5445 19.9991 0.396429 20.2553 0.397466 20.5322L0.402471 22.2728C0.413728 26.2135 2.61244 28.1271 5.14521 28.1271C5.49006 28.1271 5.84748 28.0803 6.20997 28.0112C6.83808 29.2971 7.66401 30.4913 8.70783 31.5306C11.251 34.0841 14.572 35.3707 17.9536 35.3707C19.4879 35.3707 21.3124 35.0515 22.9389 34.3772C23.0106 34.3478 23.083 34.319 23.1531 34.2853C27.7819 32.2687 31.0288 27.6516 31.0288 22.2858V17.7993C31.1848 17.7693 31.3357 17.7067 31.4518 17.5814C34.0235 14.8113 36.6133 10.3525 36.6023 6.63385L36.5922 4.8913ZM3.66401 26.2034C2.56342 25.57 1.95423 24.1724 1.94916 22.2687L1.94513 20.9758L4.86933 19.2874V22.2858C4.86933 23.764 5.13343 25.1961 5.60303 26.5516C4.87555 26.6362 4.21766 26.5217 3.66401 26.2034Z" fill="#B1FE33"/>
</svg>
