<svg width="37" height="49" viewBox="0 0 37 49" fill="none" xmlns="http://www.w3.org/2000/svg">
<path d="M12.1519 32.3776C12.2777 32.9057 12.4089 33.422 12.5508 33.9137C14.2929 39.8518 17.1111 42.941 21.1471 43.3505L21.0979 27.2094L12.1519 32.3776Z" fill="#B1FE33"/>
<path d="M21.0577 14.042C17.7148 16.0807 14.2842 18.6784 10.7969 21.8209C10.9641 25.3922 11.3375 28.571 11.9099 31.3121L21.0942 26.0062L21.0577 14.042Z" fill="#B1FE33"/>
<path d="M36.2678 4.23611C36.226 4.19955 36.1748 4.18038 36.1231 4.16184C36.098 4.15235 36.0726 4.14318 36.0432 4.13796C35.9838 4.12764 35.9207 4.12324 35.8494 4.13108C35.8441 4.13159 35.8395 4.1305 35.8342 4.13114C26.1521 5.39709 17.1522 11.5946 9.94637 18.068C9.27887 18.6684 8.6101 19.2824 7.93942 19.9192C7.36179 20.4655 6.93066 21.2816 6.7792 22.0301C6.60189 22.9316 6.53691 42.0346 14.8611 47.0878C16.7342 48.2189 18.9453 48.6803 21.4672 48.4366C30.8091 38.8833 36.575 22.2764 36.5261 5.03557C36.5276 4.67176 36.4339 4.38183 36.2678 4.23611ZM32.2784 20.5439C32.2753 20.559 32.2741 20.5736 32.2697 20.5883C32.115 21.4211 31.9641 22.2551 31.7803 23.0794C29.8359 31.7202 26.4892 39.0422 22.1011 44.2553C21.9981 44.3781 21.8504 44.4413 21.7016 44.4413C21.6985 44.4413 21.6949 44.4413 21.6919 44.4413C21.6858 44.4413 21.6801 44.4412 21.6741 44.4409L21.672 44.4413H21.6705L21.6658 44.4404C16.8901 44.2525 13.4861 40.8094 11.5485 34.2052C10.5686 30.8081 9.96127 26.5753 9.74319 21.6216C9.73657 21.4662 9.79924 21.3164 9.9144 21.2119C13.8226 17.6711 17.6686 14.7917 21.3454 12.6532C25.3015 10.3643 29.1597 8.87597 32.8768 8.18708C33.2138 8.1287 33.5001 8.38887 33.4938 8.71037C33.4177 12.6917 32.9978 16.6577 32.2784 20.5439Z" fill="#B1FE33"/>
<path d="M7.22396 19.1575C7.72261 18.6847 8.21986 18.2282 8.71685 17.7751C15.9067 11.2141 24.6918 5.06171 34.2289 3.33228C34.3519 3.30999 34.4762 3.28056 34.599 3.25986L29.9632 0.557777C29.8643 0.506313 29.7441 0.48797 29.606 0.507842C19.1149 1.8764 9.33907 9.05327 1.69954 16.2949C0.960706 16.9976 0.456262 18.1078 0.474605 18.9944C0.68116 26.9259 1.8696 39.5572 8.77194 43.568L10.9381 44.8248C6.21667 38.4274 4.04667 22.1417 7.22396 19.1575Z" fill="#B1FE33"/>
<path d="M22.1356 25.4043L31.3041 20.1075C31.9462 16.5679 32.3332 12.9609 32.4347 9.33813C29.082 10.0408 25.6091 11.4147 22.0991 13.4211L22.1356 25.4043Z" fill="#B1FE33"/>
<path d="M22.1879 42.4457C26.0296 37.45 28.9899 30.7267 30.7623 22.8512C30.8643 22.3935 30.9426 21.9288 31.0355 21.4683L22.1396 26.6075L22.1879 42.4457Z" fill="#B1FE33"/>
</svg>
