<svg width="53" height="53" viewBox="0 0 53 53" fill="none" xmlns="http://www.w3.org/2000/svg">
<path d="M15.7149 6.33097C15.7078 6.33512 15.7008 6.33799 15.6936 6.34214C10.271 9.47273 5.69366 17.2094 5.71148 23.62C5.71839 25.9986 6.39932 28.5798 8.46053 29.7663C10.234 30.7857 12.6328 30.5301 15.2134 29.0406C20.7313 25.8545 25.2052 18.0968 25.187 11.7466C25.1702 5.61931 20.9824 3.30073 15.7149 6.33097ZM15.1454 11.0893C16.4907 10.3117 17.7461 11.0267 17.7506 12.5783C17.7544 13.8988 16.8553 15.4536 15.7043 16.1184C14.365 16.8919 13.109 16.1796 13.1045 14.6321C13.1008 13.3078 13.9971 11.752 15.1454 11.0893ZM19.4572 20.0639C19.4572 20.2611 19.3586 20.4364 19.1834 20.5349L12.2608 24.5439C11.8883 24.73 11.4393 24.5087 11.4393 24.062V23.6567C11.4283 21.2469 13.0713 18.41 15.1634 17.2051C17.4712 15.8569 19.4572 17.0612 19.4572 19.6587V20.0639Z" fill="black"/>
<path d="M4.6119 23.6222C4.59747 16.9172 9.33448 8.74879 15.1466 5.3929C16.6583 4.51983 18.2978 4.03262 19.4111 3.93655C19.4291 3.93501 19.448 3.92993 19.4659 3.92853L18.0593 3.12788C16.2777 2.09137 13.8774 2.34488 11.2936 3.83867C5.96147 6.90562 1.29394 14.6283 1.30716 21.116C1.31999 24.0533 2.29125 26.2344 4.0407 27.2559L5.54038 28.109C5.52888 28.0856 5.52133 28.0583 5.51003 28.0347C4.88931 26.7345 4.618 25.0472 4.6119 23.6222Z" fill="black"/>
<path d="M42.1995 26.4623C36.7114 29.6306 32.1997 37.3778 32.2173 43.7401C32.2243 46.1349 32.8996 48.6967 34.9664 49.8859C36.7404 50.9058 39.1381 50.6496 41.7192 49.1601C47.2371 45.9747 51.711 38.2169 51.6928 31.8662C51.6764 25.8651 47.6115 23.3318 42.1995 26.4623ZM41.6488 31.2147C43.0793 30.4153 44.2557 31.2135 44.2557 32.6934C44.2557 34.0187 43.3576 35.5742 42.2074 36.2423C40.9008 36.9947 39.6114 36.3312 39.6114 34.7527C39.6114 33.4273 40.4987 31.8719 41.6488 31.2147ZM45.9644 40.1855C45.9644 40.3827 45.8659 40.558 45.6906 40.6565L38.7681 44.6545C38.5915 44.7648 38.3525 44.7489 38.2204 44.6545C38.0451 44.5669 37.9466 44.3807 37.9466 44.1836V43.7783C37.9356 41.3685 39.5676 38.5316 41.6707 37.3157C44.0546 35.9596 45.9644 37.2512 45.9644 39.7693V40.1855Z" fill="black"/>
<path d="M31.1178 43.7421C31.1032 36.9891 35.9106 28.828 41.6524 25.5123C43.2255 24.604 44.7274 24.1587 45.9175 24.0564C45.9353 24.0548 45.954 24.0498 45.9718 24.0484L44.5651 23.2478C43.8436 22.8279 43.0211 22.6199 42.1257 22.6199C35.5606 22.6199 27.7949 32.8459 27.813 41.2354C27.8253 44.1732 28.7966 46.3543 30.5466 47.3747L32.0462 48.2283C32.035 48.2055 32.0276 48.1789 32.0166 48.1558C31.4126 46.89 31.1239 45.1613 31.1178 43.7421Z" fill="black"/>
<path d="M29.7637 6.66058C36.8593 8.31683 37.4693 13.4666 37.522 17.6858L35.6854 16.1261C35.4554 15.9314 35.1099 15.9587 34.9131 16.1892C34.7174 16.4197 34.7457 16.7658 34.9762 16.9615L37.7456 19.3126C37.993 19.5228 38.3695 19.4718 38.5521 19.2041L40.4524 16.424C40.6235 16.1742 40.5594 15.8335 40.3096 15.6629C40.0598 15.4923 39.7191 15.556 39.5485 15.8057L38.6091 17.1801C38.5031 12.8388 37.6065 7.36649 30.0129 5.59412C29.7145 5.52512 29.4236 5.70857 29.3551 6.00273C29.2861 6.29742 29.4696 6.59212 29.7637 6.66058Z" fill="black"/>
<path d="M23.2372 46.3399C16.242 44.7065 15.5504 39.6782 15.4816 35.4935L16.8946 36.953C17.1053 37.1717 17.4519 37.176 17.669 36.9658C17.8867 36.7551 17.8921 36.4085 17.6819 36.1914L15.2938 33.7247C15.1794 33.607 15.0173 33.5434 14.8537 33.56C14.69 33.5739 14.5408 33.6605 14.4483 33.7964L12.5485 36.5764C12.3774 36.8262 12.4416 37.1669 12.6913 37.3375C12.9414 37.5085 13.2821 37.4441 13.4524 37.1947L14.3918 35.8199C14.4979 40.1612 15.3945 45.6335 22.988 47.4063C23.2903 47.4752 23.5785 47.2864 23.6458 46.9977C23.7148 46.703 23.5319 46.4083 23.2372 46.3399Z" fill="black"/>
</svg>
