<svg width="65" height="37" viewBox="0 0 65 37" fill="none" xmlns="http://www.w3.org/2000/svg">
<path d="M8.70703 0.4375C9.61849 0.489583 10.3672 0.841146 10.9531 1.49219C11.5391 2.13021 11.9622 2.85938 12.2227 3.67969C12.4831 4.5 12.6133 5.33984 12.6133 6.19922C12.6133 7.05859 12.4831 7.89844 12.2227 8.71875C11.9753 9.53906 11.5521 10.2747 10.9531 10.9258C10.3672 11.5638 9.61849 11.9089 8.70703 11.9609H1.51953C1.16797 11.9479 0.86849 11.8242 0.621094 11.5898C0.386719 11.3424 0.263021 11.043 0.25 10.6914V5.84766C0.263021 5.48307 0.39974 5.18359 0.660156 4.94922C0.920573 4.70182 1.23307 4.57812 1.59766 4.57812C1.94922 4.59115 2.2487 4.72135 2.49609 4.96875C2.74349 5.20312 2.8737 5.49609 2.88672 5.84766V8.81641C2.88672 9.16797 3.06901 9.34375 3.43359 9.34375H8.04297C8.53776 9.31771 8.94792 9.12891 9.27344 8.77734C9.59896 8.42578 9.83333 8.02865 9.97656 7.58594C10.1328 7.13021 10.2109 6.66797 10.2109 6.19922C10.2109 5.73047 10.1328 5.27474 9.97656 4.83203C9.83333 4.3763 9.59896 3.97266 9.27344 3.62109C8.94792 3.26953 8.53776 3.08073 8.04297 3.05469H1.51953C0.738281 2.98958 0.315104 2.56641 0.25 1.78516C0.25 1.42057 0.367188 1.10807 0.601562 0.847656C0.848958 0.58724 1.15495 0.450521 1.51953 0.4375H8.70703ZM25.6602 10.9258V6.21875C25.6602 5.89323 25.4909 5.72396 25.1523 5.71094H18.3164C18.069 5.72396 17.8542 5.83464 17.6719 6.04297C17.4896 6.23828 17.3529 6.47266 17.2617 6.74609C17.1836 7.00651 17.1445 7.27344 17.1445 7.54688C17.1445 7.80729 17.1836 8.07422 17.2617 8.34766C17.3529 8.60807 17.4896 8.84245 17.6719 9.05078C17.8542 9.24609 18.069 9.34375 18.3164 9.34375H23.3164C23.681 9.34375 23.987 9.47396 24.2344 9.73438C24.4948 9.98177 24.625 10.2878 24.625 10.6523C24.625 11.0169 24.4948 11.3229 24.2344 11.5703C23.987 11.8307 23.681 11.9609 23.3164 11.9609H18.3945C17.4831 11.9479 16.7279 11.694 16.1289 11.1992C15.543 10.6914 15.1198 10.125 14.8594 9.5C14.612 8.86198 14.4883 8.20443 14.4883 7.52734C14.4883 6.8763 14.6185 6.23828 14.8789 5.61328C15.1393 4.97526 15.5625 4.40885 16.1484 3.91406C16.7344 3.40625 17.6003 3.13281 18.7461 3.09375H26.9492C27.3138 3.09375 27.6263 3.21745 27.8867 3.46484C28.1471 3.69922 28.2839 3.9987 28.2969 4.36328V10.9258C28.2969 11.2904 28.1602 11.5964 27.8867 11.8438C27.6263 12.0781 27.3138 12.1953 26.9492 12.1953C26.168 12.1302 25.7383 11.707 25.6602 10.9258ZM35.0547 0.125C35.4193 0.125 35.7318 0.248698 35.9922 0.496094C36.2526 0.730469 36.3893 1.02995 36.4023 1.39453V3.09375H43.043C43.4076 3.09375 43.7201 3.21745 43.9805 3.46484C44.2279 3.72526 44.3516 4.03776 44.3516 4.40234C44.3516 4.76693 44.2214 5.07943 43.9609 5.33984C43.7135 5.58724 43.4076 5.71094 43.043 5.71094H36.4023V6.10156C36.3893 6.63542 36.4219 7.13021 36.5 7.58594C36.5911 8.02865 36.7995 8.42578 37.125 8.77734C37.4505 9.12891 37.8607 9.31771 38.3555 9.34375H43.1211C43.4857 9.35677 43.7852 9.49349 44.0195 9.75391C44.2669 10.0143 44.3906 10.3268 44.3906 10.6914C44.3776 11.043 44.2474 11.3424 44 11.5898C43.7656 11.8242 43.4727 11.9479 43.1211 11.9609H37.6914C36.7799 11.9089 36.0247 11.6029 35.4258 11.043C34.8398 10.4701 34.4167 9.77344 34.1562 8.95312C33.9089 8.13281 33.7786 7.26042 33.7656 6.33594V5.71094H31.5195C31.1549 5.71094 30.849 5.58073 30.6016 5.32031C30.3411 5.07292 30.2109 4.76693 30.2109 4.40234C30.2109 4.03776 30.3346 3.73177 30.582 3.48438C30.8424 3.22396 31.1549 3.09375 31.5195 3.09375H33.7656V1.39453C33.7786 1.04297 33.9089 0.75 34.1562 0.515625C34.4036 0.268229 34.7031 0.138021 35.0547 0.125ZM57.1836 10.9258V6.21875C57.1836 5.89323 57.0143 5.72396 56.6758 5.71094H49.8398C49.5924 5.72396 49.3776 5.83464 49.1953 6.04297C49.013 6.23828 48.8763 6.47266 48.7852 6.74609C48.707 7.00651 48.668 7.27344 48.668 7.54688C48.668 7.80729 48.707 8.07422 48.7852 8.34766C48.8763 8.60807 49.013 8.84245 49.1953 9.05078C49.3776 9.24609 49.5924 9.34375 49.8398 9.34375H54.8398C55.2044 9.34375 55.5104 9.47396 55.7578 9.73438C56.0182 9.98177 56.1484 10.2878 56.1484 10.6523C56.1484 11.0169 56.0182 11.3229 55.7578 11.5703C55.5104 11.8307 55.2044 11.9609 54.8398 11.9609H49.918C49.0065 11.9479 48.2513 11.694 47.6523 11.1992C47.0664 10.6914 46.6432 10.125 46.3828 9.5C46.1354 8.86198 46.0117 8.20443 46.0117 7.52734C46.0117 6.8763 46.1419 6.23828 46.4023 5.61328C46.6628 4.97526 47.0859 4.40885 47.6719 3.91406C48.2578 3.40625 49.1237 3.13281 50.2695 3.09375H58.4727C58.8372 3.09375 59.1497 3.21745 59.4102 3.46484C59.6706 3.69922 59.8073 3.9987 59.8203 4.36328V10.9258C59.8203 11.2904 59.6836 11.5964 59.4102 11.8438C59.1497 12.0781 58.8372 12.1953 58.4727 12.1953C57.6914 12.1302 57.2617 11.707 57.1836 10.9258ZM1.53906 20.125C1.90365 20.125 2.21615 20.2487 2.47656 20.4961C2.73698 20.7305 2.8737 21.0299 2.88672 21.3945V26.1016C2.8737 26.6354 2.90625 27.1302 2.98438 27.5859C3.07552 28.0286 3.28385 28.4258 3.60938 28.7773C3.9349 29.1289 4.34505 29.3177 4.83984 29.3438H11.0898C11.4544 29.3568 11.7539 29.4935 11.9883 29.7539C12.2357 30.0143 12.3594 30.3268 12.3594 30.6914C12.3464 31.043 12.2161 31.3424 11.9688 31.5898C11.7344 31.8242 11.4414 31.9479 11.0898 31.9609H4.17578C3.26432 31.9089 2.50911 31.6029 1.91016 31.043C1.32422 30.4701 0.901042 29.7734 0.640625 28.9531C0.393229 28.1328 0.263021 27.2604 0.25 26.3359V21.3945C0.263021 21.043 0.393229 20.75 0.640625 20.5156C0.888021 20.2682 1.1875 20.138 1.53906 20.125ZM15.5625 22.8984C15.9141 22.9115 16.2135 23.0417 16.4609 23.2891C16.7083 23.5234 16.8385 23.8164 16.8516 24.168V30.9258C16.7734 31.707 16.3438 32.1302 15.5625 32.1953C15.1979 32.1953 14.8789 32.0781 14.6055 31.8438C14.3451 31.5964 14.2148 31.2904 14.2148 30.9258V24.168C14.2279 23.8034 14.3646 23.5039 14.625 23.2695C14.8854 23.0221 15.1979 22.8984 15.5625 22.8984ZM13.9219 20.3594C13.9219 19.9948 14.0781 19.6823 14.3906 19.4219C14.7031 19.1615 15.0807 19.0312 15.5234 19.0312C15.9661 19.0312 16.3438 19.1615 16.6562 19.4219C16.9688 19.6823 17.125 19.9948 17.125 20.3594C17.125 20.737 16.9688 21.056 16.6562 21.3164C16.3438 21.5768 15.9661 21.707 15.5234 21.707C15.0807 21.707 14.7031 21.5768 14.3906 21.3164C14.0781 21.056 13.9219 20.737 13.9219 20.3594ZM30.1914 26.2188C30.1914 25.8932 30.0221 25.724 29.6836 25.7109H22.8477C22.6003 25.724 22.3854 25.8346 22.2031 26.043C22.0208 26.2383 21.8841 26.4727 21.793 26.7461C21.7148 27.0065 21.6758 27.2734 21.6758 27.5469C21.6758 27.8073 21.7148 28.0742 21.793 28.3477C21.8841 28.6081 22.0208 28.8424 22.2031 29.0508C22.3854 29.2461 22.6003 29.3438 22.8477 29.3438H27.8477C28.2122 29.3438 28.5182 29.474 28.7656 29.7344C29.026 29.9818 29.1562 30.2878 29.1562 30.6523C29.1562 31.0169 29.026 31.3229 28.7656 31.5703C28.5182 31.8307 28.2122 31.9609 27.8477 31.9609H22.9258C22.0143 31.9479 21.2591 31.694 20.6602 31.1992C20.0742 30.6914 19.651 30.125 19.3906 29.5C19.1432 28.862 19.0195 28.2044 19.0195 27.5273C19.0195 26.8763 19.1497 26.2383 19.4102 25.6133C19.6706 24.9753 20.0938 24.4089 20.6797 23.9141C21.2656 23.4062 22.1315 23.1328 23.2773 23.0938H31.4805C31.8451 23.0938 32.1576 23.2174 32.418 23.4648C32.6784 23.6992 32.8151 23.9987 32.8281 24.3633V30.5352C32.8281 31.5768 32.6849 32.5599 32.3984 33.4844C32.138 34.3047 31.7083 34.9948 31.1094 35.5547C30.5234 36.1276 29.7747 36.4401 28.8633 36.4922H22.1055C21.7539 36.4792 21.4544 36.349 21.207 36.1016C20.9727 35.8672 20.849 35.5742 20.8359 35.2227C20.8359 34.8581 20.9531 34.5456 21.1875 34.2852C21.4349 34.0247 21.7409 33.888 22.1055 33.875H28.1992C28.694 33.849 29.1042 33.6602 29.4297 33.3086C29.7552 32.957 29.9635 32.5469 30.0547 32.0781C30.1458 31.6094 30.1914 31.0039 30.1914 30.2617V26.2188ZM36.8125 20.125C37.1641 20.138 37.4635 20.2682 37.7109 20.5156C37.9583 20.75 38.0885 21.043 38.1016 21.3945V23.0938H44.1562C45.0677 23.1068 45.8164 23.3672 46.4023 23.875C47.0013 24.3698 47.4245 24.9297 47.6719 25.5547C47.9323 26.1927 48.0625 26.8503 48.0625 27.5273H48.082V30.9258C48.082 31.2904 47.9453 31.5964 47.6719 31.8438C47.4115 32.0781 47.099 32.1953 46.7344 32.1953C45.9531 32.1302 45.5234 31.707 45.4453 30.9258V27.5078C45.4453 27.2604 45.3932 27 45.2891 26.7266C45.1979 26.4531 45.0612 26.2188 44.8789 26.0234C44.6966 25.8151 44.4818 25.7109 44.2344 25.7109H38.1016V30.9648C38.0234 31.7461 37.5938 32.1693 36.8125 32.2344C36.4479 32.2344 36.1289 32.1172 35.8555 31.8828C35.5951 31.6354 35.4648 31.3294 35.4648 30.9648V21.3945C35.4779 21.0299 35.6146 20.7305 35.875 20.4961C36.1354 20.2487 36.4479 20.125 36.8125 20.125ZM54.7812 20.125C55.1458 20.125 55.4583 20.2487 55.7188 20.4961C55.9792 20.7305 56.1159 21.0299 56.1289 21.3945V23.0938H62.7695C63.1341 23.0938 63.4466 23.2174 63.707 23.4648C63.9544 23.7253 64.0781 24.0378 64.0781 24.4023C64.0781 24.7669 63.9479 25.0794 63.6875 25.3398C63.4401 25.5872 63.1341 25.7109 62.7695 25.7109H56.1289V26.1016C56.1159 26.6354 56.1484 27.1302 56.2266 27.5859C56.3177 28.0286 56.526 28.4258 56.8516 28.7773C57.1771 29.1289 57.5872 29.3177 58.082 29.3438H62.8477C63.2122 29.3568 63.5117 29.4935 63.7461 29.7539C63.9935 30.0143 64.1172 30.3268 64.1172 30.6914C64.1042 31.043 63.974 31.3424 63.7266 31.5898C63.4922 31.8242 63.1992 31.9479 62.8477 31.9609H57.418C56.5065 31.9089 55.7513 31.6029 55.1523 31.043C54.5664 30.4701 54.1432 29.7734 53.8828 28.9531C53.6354 28.1328 53.5052 27.2604 53.4922 26.3359V25.7109H51.2461C50.8815 25.7109 50.5755 25.5807 50.3281 25.3203C50.0677 25.0729 49.9375 24.7669 49.9375 24.4023C49.9375 24.0378 50.0612 23.7318 50.3086 23.4844C50.569 23.224 50.8815 23.0938 51.2461 23.0938H53.4922V21.3945C53.5052 21.043 53.6354 20.75 53.8828 20.5156C54.1302 20.2682 54.4297 20.138 54.7812 20.125Z" fill="white"/>
</svg>
