<svg width="53" height="53" viewBox="0 0 53 53" fill="none" xmlns="http://www.w3.org/2000/svg">
<path d="M29.3709 2.5L8.05884 14.8049L11.9725 17.0791L33.2847 4.77424L29.3709 2.5Z" fill="black"/>
<path d="M12.4995 17.9915C12.5066 20.4799 12.5796 46.2784 12.5916 50.4999L27.53 41.8758L27.5105 34.9218C27.5095 34.733 27.6103 34.5586 27.7739 34.464L33.8826 30.9372L33.8116 5.68701C28.7807 8.59159 17.5062 15.1009 12.4995 17.9915ZM25.5957 40.1873L15.9166 45.7754C15.6634 45.9208 15.3409 45.8337 15.1973 45.5825C15.0512 45.3304 15.1377 45.0084 15.3898 44.8628L25.0688 39.2747C25.3199 39.1291 25.643 39.215 25.7881 39.4676C25.9342 39.7197 25.8477 40.0417 25.5957 40.1873ZM25.5957 34.0544L15.9166 39.6425C15.6634 39.7879 15.3409 39.7008 15.1973 39.4496C15.0512 39.1975 15.1377 38.8755 15.3898 38.7299L25.0688 33.1418C25.3199 32.9972 25.643 33.0816 25.7881 33.3347C25.9342 33.5868 25.8477 33.9088 25.5957 34.0544ZM31.6097 24.4499L15.9166 33.5101C15.6634 33.6555 15.3409 33.5684 15.1973 33.3172C15.0512 33.0651 15.1377 32.7431 15.3898 32.5975L31.0829 23.5373C31.334 23.3922 31.657 23.4766 31.8021 23.7302C31.9482 23.9823 31.8618 24.3044 31.6097 24.4499ZM31.6097 18.3176L15.72 27.4909C15.4668 27.6363 15.1444 27.5492 15.0008 27.298C14.8547 27.0459 14.9411 26.7239 15.1932 26.5783L31.0829 17.4049C31.334 17.2598 31.657 17.3447 31.8021 17.5978C31.9482 17.8499 31.8618 18.172 31.6097 18.3176ZM31.6097 12.1852L15.72 21.3585C15.4668 21.5039 15.1444 21.4169 15.0008 21.1656C14.8547 20.9135 14.9411 20.5915 15.1932 20.4459L31.0829 11.2725C31.334 11.1274 31.657 11.2123 31.8021 11.4654C31.9482 11.7175 31.8618 12.0396 31.6097 12.1852Z" fill="black"/>
<path d="M28.5796 40.2326L32.9627 32.6851L28.5652 35.2238L28.5796 40.2326Z" fill="black"/>
<path d="M11.4458 17.9914L7.53711 15.7202L7.62971 48.2239L11.5376 50.4948C11.5151 42.5475 11.4672 25.5876 11.4458 17.9914Z" fill="black"/>
<path d="M38.6137 8.98265C40.19 9.89428 42.8508 9.89222 44.425 8.97853C45.8284 8.1619 45.7952 7.02525 44.4055 6.22308C42.7986 5.29463 40.1913 5.2892 38.5941 6.2169C37.1667 7.04748 37.244 8.1935 38.6137 8.98265Z" fill="black"/>
<path d="M41.4001 38.5652L42.2043 36.7651H40.6501L41.4001 38.5652Z" fill="black"/>
<path d="M39.3784 16.6332C38.9094 16.4744 38.4586 16.2647 38.0336 15.9958L37.9592 30.4513C37.9592 31.1002 38.6996 31.604 39.3465 31.8669L39.3784 16.6332Z" fill="black"/>
<path d="M38.0756 12.8808C38.0674 12.8756 38.0581 12.8705 38.0499 12.8653L38.0405 14.6928C39.9951 16.3342 42.9135 16.3326 45.0214 14.6983L45.0301 12.8247C45.0013 12.8427 44.9715 12.8597 44.9417 12.8772C43.0165 13.9925 40.0008 13.9951 38.0756 12.8808Z" fill="black"/>
<path d="M38.0868 9.89535C37.8892 9.78114 37.7092 9.6587 37.5456 9.52905L37.5425 10.575C37.5413 11.158 38.0911 11.6727 38.6033 11.9681C39.59 12.538 40.9989 12.7505 42.3004 12.6071C43.491 12.4755 45.4535 11.7846 45.4559 10.5981L45.4601 9.54757C45.3067 9.66847 45.138 9.78268 44.9538 9.88918C43.0308 11.0076 40.014 11.0086 38.0868 9.89535Z" fill="black"/>
<path d="M43.6248 31.8528C44.2194 31.6029 44.9476 31.1132 44.9476 30.4769L45.0152 15.9827C44.5799 16.2468 44.1262 16.4605 43.6566 16.6196L43.6248 31.8528Z" fill="black"/>
<path d="M42.6025 16.8926C41.7875 17.0301 41.1543 17.0138 40.4316 16.8985L40.3997 32.1577C41.1546 32.2882 41.7714 32.2961 42.5707 32.1547L42.6025 16.8926Z" fill="black"/>
<path d="M39.043 32.8878C39.0399 32.8867 39.0365 32.8864 39.0334 32.8852L40.211 35.7117H42.6748L43.9435 32.8718C43.9365 32.8746 43.9282 32.8754 43.9212 32.8781C42.3009 33.5185 40.3528 33.3958 39.043 32.8878Z" fill="black"/>
</svg>
