<svg width="30" height="48" viewBox="0 0 30 48" fill="none" xmlns="http://www.w3.org/2000/svg">
<g clip-path="url(#clip0_2060_1568)">
<path d="M7.06 6.74013C8.37 5.97013 10.27 6.65013 10.29 7.25013C10.29 7.93013 8.21 8.42013 7.07 7.76013C6.47 7.41013 6.54 7.05013 7.07 6.75013L7.06 6.74013ZM6.63 8.71013C7.64 9.25013 9.24 9.26013 10.28 8.71013C10.28 8.80013 10.28 11.7301 10.22 41.1501C10.22 41.2301 10.18 41.3201 10.11 41.4001C9.34 42.3101 6.62 42.0001 6.58 41.1401C6.58 37.8201 6.56 53.1501 6.64 8.71013H6.63ZM7.93 48.0001L0 43.4201V41.2301C0.11 41.2901 8.45 46.1101 7.93 45.8101V48.0001ZM16.85 43.4201L8.98 48.0001V45.8101C9.09 45.7501 17.38 40.9301 16.86 41.2401V43.4301L16.85 43.4201ZM16.33 40.3201C16.22 40.3801 7.93 45.2001 8.45 44.9001C8.34 44.8401 -0.00999999 40.0201 0.52 40.3201L5.52 37.4201V41.1401C5.52 42.9001 8.61 43.5601 10.32 42.5701C11 42.1701 11.26 41.6401 11.27 41.1601V37.4101L16.33 40.3301V40.3201ZM11.33 10.4801C11.43 10.4301 11.53 10.3701 11.63 10.3201C13.64 9.16013 15.66 7.28013 17.43 5.62013C19.12 4.07013 21.16 2.15013 23.06 1.06013C24.46 0.25013 25.69 -0.0898697 26.83 0.0201303L28.41 0.94013C28.41 0.94013 28.39 0.94013 28.38 0.94013C27.56 1.11013 26.7 1.43013 25.74 2.00013C21.86 4.24013 18.08 9.08013 14.3 11.2701C13.41 11.7901 12.37 12.2201 11.34 12.2901V10.4801H11.33ZM19.96 23.1601C17.6 25.3501 14.3 28.5701 11.3 28.7601L11.33 13.3601C12.26 13.3001 13.48 12.9601 14.82 12.1801C16.82 11.0301 18.76 9.23013 20.64 7.47013C22.49 5.76013 24.4 3.98013 26.26 2.91013C27.27 2.32013 28.45 1.86013 29.62 1.86013C29.63 1.86013 29.64 1.86013 29.65 1.86013L29.7 17.2601C26.14 17.2601 22.76 20.5501 19.95 23.1601H19.96Z" fill="black"/>
</g>
<defs>
<clipPath id="clip0_2060_1568">
<rect width="29.71" height="48" fill="white"/>
</clipPath>
</defs>
</svg>
