<svg width="53" height="53" viewBox="0 0 53 53" fill="none" xmlns="http://www.w3.org/2000/svg">
<path d="M43.2569 6.18921C36.8894 9.86537 22.0983 18.4048 15.4888 22.2207L15.5068 28.5808L43.2744 12.5487L43.2569 6.18921ZM27.5676 19.2054L17.9741 24.7363C17.7224 24.8816 17.3997 24.7948 17.2549 24.5428C17.1093 24.2913 17.1962 23.9687 17.4483 23.8236L27.0418 18.2927C27.2944 18.1472 27.616 18.2336 27.761 18.4862C27.9066 18.7377 27.8197 19.0603 27.5676 19.2054ZM30.9702 18.2724C30.04 18.8039 29.2149 18.2692 29.2149 17.2681C29.2061 16.4297 29.7825 15.4341 30.5248 15.0062C31.3916 14.4933 32.2714 14.9482 32.2714 16.0018C32.2801 16.8489 31.7038 17.8444 30.9702 18.2724ZM35.8589 15.4487C34.9212 15.9846 34.1038 15.4332 34.1038 14.4534C34.0951 13.6063 34.6714 12.6109 35.4135 12.1831C36.3199 11.6654 37.1599 12.1522 37.1599 13.1872C37.1687 14.0255 36.5923 15.0209 35.8589 15.4487ZM40.7379 12.6251C39.8694 13.1397 38.9832 12.6692 38.9832 11.6299C38.9832 10.7831 39.5594 9.78794 40.2927 9.36017C41.2042 8.84976 42.0474 9.32868 42.0474 10.3641C42.0561 11.2022 41.48 12.1974 40.7379 12.6251Z" fill="black"/>
<path d="M37.9527 2.5L10.1846 18.5324L14.9615 21.3082L42.7298 5.2765L37.9527 2.5Z" fill="black"/>
<path d="M9.6631 19.4475C9.66993 21.8553 9.63601 9.89611 9.74335 47.7481L14.4552 50.4932L14.4341 22.2204L9.6631 19.4475Z" fill="black"/>
<path d="M43.2779 13.7644L15.5093 29.7966V50.5L43.3366 34.4944L43.2779 13.7644ZM25.3245 41.5063L18.4422 45.48C18.191 45.6251 17.8682 45.5394 17.7225 45.2871C17.5769 45.035 17.6633 44.7129 17.9154 44.5673L24.7977 40.5937C25.0493 40.4476 25.3713 40.534 25.5174 40.7866C25.663 41.0387 25.5766 41.3608 25.3245 41.5063ZM25.3245 38.31L18.4422 42.2837C18.191 42.4288 17.8682 42.3431 17.7225 42.0908C17.5769 41.8387 17.6633 41.5166 17.9154 41.371L24.7977 37.3974C25.0493 37.2518 25.3713 37.3372 25.5174 37.5903C25.663 37.8424 25.5766 38.1645 25.3245 38.31ZM25.3171 34.8141L18.4159 38.7545C18.037 38.944 17.6257 38.6896 17.6257 38.2909L17.6468 32.2327C17.6574 32.0536 17.7522 31.8745 17.9102 31.7797L24.7797 27.8182C24.9377 27.7233 25.1485 27.7233 25.3065 27.8182C25.4645 27.913 25.5699 28.0816 25.5699 28.2712L25.5909 34.361C25.5909 34.5507 25.4856 34.7192 25.3171 34.8141ZM36.9699 31.7059L33.9776 33.8237L33.651 37.4586C33.6299 37.7009 33.4508 37.8906 33.2191 37.9327C33.1874 37.9327 33.1558 37.9432 33.1242 37.9432C32.924 37.9432 32.7344 37.8274 32.6501 37.6482L29.8897 31.9904C29.8159 31.8429 29.8264 31.6533 29.9107 31.5058C29.995 31.3477 30.1531 31.2529 30.3321 31.2424L36.6222 30.7471C36.8645 30.7366 37.0858 30.8736 37.1595 31.0948C37.2438 31.3161 37.1595 31.569 36.9699 31.7059ZM40.9557 22.8924L27.2187 30.8237C26.9675 30.9688 26.6447 30.8831 26.499 30.6308C26.3534 30.3787 26.4399 30.0567 26.6919 29.9111L40.4289 21.9798C40.6789 21.8347 41.0025 21.9196 41.1486 22.1727C41.2942 22.4248 41.2077 22.7468 40.9557 22.8924ZM40.9557 19.6956L27.2187 27.6274C26.9675 27.7725 26.6447 27.6868 26.499 27.4345C26.3534 27.1824 26.4399 26.8604 26.6919 26.7148L40.4289 18.783C40.6789 18.6374 41.0025 18.7228 41.1486 18.9759C41.2942 19.228 41.2077 19.55 40.9557 19.6956Z" fill="black"/>
</svg>
