<svg width="87" height="87" viewBox="0 0 87 87" fill="none" xmlns="http://www.w3.org/2000/svg">
<path d="M48.3333 0H38.6667V9.66667H48.3333V0ZM67.6667 9.66667H77.3333V19.3333H67.6667V9.66667ZM38.6667 38.6667H48.3333V48.3333H38.6667V38.6667ZM0 38.6667H9.66667V48.3333H0V38.6667ZM87 38.6667H77.3333V48.3333H87V38.6667ZM9.66667 9.66667H19.3333V19.3333H9.66667V9.66667ZM77.3333 77.3333H67.6667V67.6667H77.3333V77.3333ZM38.6667 87H48.3333V77.3333H38.6667V87ZM19.3333 77.3333H9.66667V67.6667H19.3333V77.3333ZM29 19.3333H58V29H29V19.3333ZM29 58H19.3333V29H29V58ZM29 58V67.6667H58V58H67.6667V29H58V58H29Z" fill="#E3FB1E"/>
</svg>
