<svg width="1340" height="136" viewBox="0 0 1340 136" fill="none" xmlns="http://www.w3.org/2000/svg">
<path fill-rule="evenodd" clip-rule="evenodd" d="M6.37712 71.6189C6.37672 71.619 6.37655 71.6191 6.23335 71.3102L6.37648 71.6192C4.37206 72.5479 1.99425 71.6759 1.06549 69.6715C0.136724 67.6671 1.00872 65.2893 3.01313 64.3605L4.69481 67.9898C3.01313 64.3605 3.01577 64.3593 3.01958 64.3575L3.03312 64.3513L3.0814 64.329C3.123 64.3099 3.18341 64.2823 3.26249 64.2462C3.42064 64.1742 3.6535 64.0687 3.96007 63.9315C4.57319 63.6571 5.48112 63.2556 6.6758 62.7402C9.06513 61.7094 12.6016 60.2229 17.2207 58.3861C26.4587 54.7124 40.0285 49.6365 57.414 44.0011C92.1823 32.7311 142.227 19.2176 203.416 10.2094C325.786 -7.80614 492.828 -7.81511 671.351 64.2809C848.229 135.713 1013.77 135.722 1135.12 117.856C1195.8 108.923 1245.41 95.5247 1279.82 84.3684C1297.03 78.7907 1310.44 73.7747 1319.53 70.1598C1324.07 68.3525 1327.54 66.8955 1329.86 65.8939C1331.02 65.3931 1331.9 65.0062 1332.48 64.7462C1332.77 64.6163 1332.98 64.518 1333.13 64.4532L1333.28 64.3812L1333.32 64.3644L1333.33 64.3605C1335.33 63.4318 1337.71 64.3037 1338.64 66.3082C1339.57 68.3126 1338.7 70.6904 1336.69 71.6192L1335.01 67.9898C1336.69 71.6192 1336.69 71.6204 1336.69 71.6221L1336.67 71.6284L1336.62 71.6506L1336.44 71.7334C1336.28 71.8055 1336.05 71.9109 1335.75 72.0481C1335.13 72.3226 1334.22 72.7241 1333.03 73.2395C1330.64 74.2703 1327.1 75.7567 1322.48 77.5936C1313.25 81.2673 1299.68 86.3431 1282.29 91.9786C1247.52 103.249 1197.48 116.762 1136.29 125.77C1013.92 143.786 846.877 143.795 668.355 71.6988C491.476 0.266638 325.939 0.25767 204.581 18.1241C143.905 27.0569 94.2982 40.455 59.8808 51.6113C42.6735 57.189 29.2671 62.2049 20.1769 65.8198C15.632 67.6272 12.1664 69.0842 9.84478 70.0858C8.68396 70.5866 7.80916 70.9735 7.22841 71.2334C6.93804 71.3634 6.72119 71.4616 6.57886 71.5265C6.5077 71.5589 6.45517 71.583 6.4214 71.5985L6.38482 71.6153L6.37712 71.6189Z" fill="#75CEFD"/>
<path fill-rule="evenodd" clip-rule="evenodd" d="M6.37712 71.6189C6.37672 71.619 6.37655 71.6191 6.23335 71.3102L6.37648 71.6192C4.37206 72.5479 1.99425 71.6759 1.06549 69.6715C0.136724 67.6671 1.00872 65.2893 3.01313 64.3605L4.69481 67.9898C3.01313 64.3605 3.01577 64.3593 3.01958 64.3575L3.03312 64.3513L3.0814 64.329C3.123 64.3099 3.18341 64.2823 3.26249 64.2462C3.42064 64.1742 3.6535 64.0687 3.96007 63.9315C4.57319 63.6571 5.48112 63.2556 6.6758 62.7402C9.06513 61.7094 12.6016 60.2229 17.2207 58.3861C26.4587 54.7124 40.0285 49.6365 57.414 44.0011C92.1823 32.7311 142.227 19.2176 203.416 10.2094C325.786 -7.80614 492.828 -7.81511 671.351 64.2809C848.229 135.713 1013.77 135.722 1135.12 117.856C1195.8 108.923 1245.41 95.5247 1279.82 84.3684C1297.03 78.7907 1310.44 73.7747 1319.53 70.1598C1324.07 68.3525 1327.54 66.8955 1329.86 65.8939C1331.02 65.3931 1331.9 65.0062 1332.48 64.7462C1332.77 64.6163 1332.98 64.518 1333.13 64.4532L1333.28 64.3812L1333.32 64.3644L1333.33 64.3605C1335.33 63.4318 1337.71 64.3037 1338.64 66.3082C1339.57 68.3126 1338.7 70.6904 1336.69 71.6192L1335.01 67.9898C1336.69 71.6192 1336.69 71.6204 1336.69 71.6221L1336.67 71.6284L1336.62 71.6506L1336.44 71.7334C1336.28 71.8055 1336.05 71.9109 1335.75 72.0481C1335.13 72.3226 1334.22 72.7241 1333.03 73.2395C1330.64 74.2703 1327.1 75.7567 1322.48 77.5936C1313.25 81.2673 1299.68 86.3431 1282.29 91.9786C1247.52 103.249 1197.48 116.762 1136.29 125.77C1013.92 143.786 846.877 143.795 668.355 71.6988C491.476 0.266638 325.939 0.25767 204.581 18.1241C143.905 27.0569 94.2982 40.455 59.8808 51.6113C42.6735 57.189 29.2671 62.2049 20.1769 65.8198C15.632 67.6272 12.1664 69.0842 9.84478 70.0858C8.68396 70.5866 7.80916 70.9735 7.22841 71.2334C6.93804 71.3634 6.72119 71.4616 6.57886 71.5265C6.5077 71.5589 6.45517 71.583 6.4214 71.5985L6.38482 71.6153L6.37712 71.6189Z" fill="url(#paint0_linear_2060_1255)"/>
<defs>
<linearGradient id="paint0_linear_2060_1255" x1="1474.03" y1="82.6511" x2="18.1449" y2="-181.174" gradientUnits="userSpaceOnUse">
<stop stop-color="#4AFF00"/>
<stop offset="1" stop-color="#E3FB1E"/>
</linearGradient>
</defs>
</svg>
