<?xml version="1.0" standalone="no"?>
<!DOCTYPE svg PUBLIC "-//W3C//DTD SVG 20010904//EN"
 "http://www.w3.org/TR/2001/REC-SVG-20010904/DTD/svg10.dtd">
<svg version="1.0" xmlns="http://www.w3.org/2000/svg"
 width="384.000000pt" height="131.000000pt" viewBox="0 0 384.000000 131.000000"
 preserveAspectRatio="xMidYMid meet">

<g transform="translate(0.000000,131.000000) scale(0.100000,-0.100000)"
fill="#000000" stroke="none">
<path d="M61 986 c2 -2 65 -6 139 -10 74 -3 160 -8 190 -10 34 -3 23 0 -30 9
-76 12 -310 21 -299 11z"/>
<path d="M122 943 c27 -2 69 -2 96 0 26 2 4 3 -48 3 -52 0 -74 -1 -48 -3z"/>
<path d="M293 933 c9 -2 25 -2 35 0 9 3 1 5 -18 5 -19 0 -27 -2 -17 -5z"/>
<path d="M368 923 c6 -2 18 -2 25 0 6 3 1 5 -13 5 -14 0 -19 -2 -12 -5z"/>
<path d="M223 903 c15 -2 37 -2 50 0 12 2 0 4 -28 4 -27 0 -38 -2 -22 -4z"/>
<path d="M313 893 c9 -2 23 -2 30 0 6 3 -1 5 -18 5 -16 0 -22 -2 -12 -5z"/>
<path d="M378 883 c7 -3 16 -2 19 1 4 3 -2 6 -13 5 -11 0 -14 -3 -6 -6z"/>
<path d="M168 873 c17 -2 47 -2 65 0 17 2 3 4 -33 4 -36 0 -50 -2 -32 -4z"/>
<path d="M283 863 c9 -2 25 -2 35 0 9 3 1 5 -18 5 -19 0 -27 -2 -17 -5z"/>
<path d="M348 853 c6 -2 18 -2 25 0 6 3 1 5 -13 5 -14 0 -19 -2 -12 -5z"/>
<path d="M203 843 c9 -2 23 -2 30 0 6 3 -1 5 -18 5 -16 0 -22 -2 -12 -5z"/>
<path d="M281 836 c2 -2 24 -6 49 -9 30 -4 38 -3 25 3 -19 8 -83 14 -74 6z"/>
<path d="M211 816 c2 -2 31 -6 64 -9 37 -3 51 -2 35 3 -25 8 -107 13 -99 6z"/>
<path d="M388 813 c6 -2 18 -2 25 0 6 3 1 5 -13 5 -14 0 -19 -2 -12 -5z"/>
<path d="M346 801 c9 -9 83 -27 74 -18 -3 3 -23 10 -44 16 -22 5 -35 6 -30 2z"/>
<path d="M438 803 c7 -3 16 -2 19 1 4 3 -2 6 -13 5 -11 0 -14 -3 -6 -6z"/>
<path d="M270 781 c36 -4 81 -11 100 -14 31 -6 32 -6 10 4 -14 6 -59 12 -100
14 l-75 4 65 -8z"/>
<path d="M231 766 c2 -2 31 -6 64 -9 39 -4 50 -3 30 2 -31 9 -102 14 -94 7z"/>
<path d="M425 750 c27 -12 43 -12 25 0 -8 5 -22 9 -30 9 -10 0 -8 -3 5 -9z"/>
<path d="M380 740 c9 -6 -12 -8 -60 -6 -67 3 -69 3 -20 -4 30 -3 46 -7 36 -8
-11 -1 -16 -5 -13 -8 4 -4 28 -1 53 6 38 11 44 15 28 21 -27 11 -42 10 -24 -1z"/>
<path d="M365 705 c-24 -11 -26 -14 -10 -14 17 -1 17 -3 5 -11 -11 -7 -18 -5
-27 6 -7 10 -13 11 -18 5 -3 -6 -1 -11 4 -11 6 0 11 -6 11 -14 0 -12 54 -33
63 -24 1 2 15 -5 30 -15 15 -9 27 -13 27 -8 0 5 -5 13 -10 16 -8 5 -7 11 1 21
10 12 9 13 -5 8 -15 -6 -21 5 -17 30 1 5 -6 6 -16 2 -16 -5 -15 -4 1 9 25 19
3 20 -39 0z"/>
<path d="M2830 480 c0 -13 7 -20 19 -20 10 0 21 9 24 20 4 16 0 20 -19 20 -17
0 -24 -6 -24 -20z"/>
<path d="M385 470 c10 -11 20 -20 23 -20 3 0 -3 9 -13 20 -10 11 -20 20 -23
20 -3 0 3 -9 13 -20z"/>
<path d="M2110 444 c0 -17 -6 -28 -20 -31 -11 -3 -20 -14 -20 -24 0 -12 7 -19
20 -19 18 0 20 -7 20 -68 0 -96 9 -106 104 -110 72 -4 76 -3 76 17 0 19 -6 21
-58 21 -32 0 -63 5 -70 12 -7 7 -12 38 -12 70 l0 58 60 0 c53 0 60 2 60 20 0
18 -7 20 -60 20 l-60 0 0 30 c0 23 -4 30 -20 30 -15 0 -20 -7 -20 -26z"/>
<path d="M658 399 c-12 -7 -18 -22 -18 -49 0 -58 27 -72 130 -69 83 2 108 -7
97 -35 -9 -23 -175 -23 -183 -1 -7 18 -44 20 -44 2 0 -7 6 -22 14 -33 12 -16
29 -20 110 -22 117 -5 146 8 146 63 0 54 -19 65 -115 65 -96 0 -115 5 -115 31
0 17 8 19 90 19 68 0 92 -3 96 -14 3 -8 13 -12 25 -9 23 6 24 12 3 41 -14 20
-23 22 -117 22 -56 0 -110 -5 -119 -11z"/>
<path d="M990 299 c0 -109 0 -110 23 -107 21 3 22 7 22 91 l0 87 68 0 67 0 0
-90 c0 -89 0 -90 25 -90 25 0 25 1 25 90 l0 90 65 0 65 0 0 -90 c0 -89 0 -90
25 -90 25 0 25 1 25 88 0 122 -8 132 -109 132 -42 0 -82 -5 -88 -11 -8 -8 -13
-8 -17 0 -5 7 -44 11 -102 11 l-94 0 0 -111z"/>
<path d="M1496 394 c-12 -11 -16 -36 -16 -90 0 -108 8 -114 155 -114 l115 0 0
110 0 110 -119 0 c-95 0 -123 -3 -135 -16z m204 -94 l0 -70 -78 0 c-47 0 -83
5 -90 12 -13 13 -17 110 -5 121 3 4 44 7 90 7 l83 0 0 -70z"/>
<path d="M1830 300 c0 -103 1 -110 20 -110 19 0 20 7 20 90 l0 90 60 0 c43 0
61 -4 68 -15 10 -18 42 -10 42 10 0 34 -30 45 -121 45 l-89 0 0 -110z"/>
<path d="M2340 300 l0 -110 25 0 c25 0 25 1 25 90 l0 90 65 0 65 0 0 -90 c0
-89 0 -90 25 -90 24 0 24 2 27 88 l3 87 59 3 c41 2 62 -1 67 -10 5 -7 9 -48 9
-90 0 -71 2 -78 20 -78 19 0 20 7 20 93 0 120 -6 127 -111 127 -41 0 -80 -5
-86 -11 -8 -8 -13 -8 -17 0 -5 7 -44 11 -102 11 l-94 0 0 -110z"/>
<path d="M2830 300 c0 -102 1 -110 19 -110 18 0 20 9 23 110 3 108 3 110 -19
110 -22 0 -23 -3 -23 -110z"/>
<path d="M2975 396 c-17 -12 -20 -26 -20 -91 0 -104 13 -115 137 -115 81 0 91
2 113 25 14 13 25 29 25 35 0 16 -47 12 -54 -5 -5 -13 -21 -15 -88 -13 l-83 3
-3 68 -3 67 91 0 c73 0 90 -3 90 -15 0 -16 18 -19 37 -7 9 6 9 13 0 32 -12 24
-17 25 -117 28 -80 2 -110 -1 -125 -12z"/>
<path d="M3310 300 c0 -103 1 -110 20 -110 19 0 20 7 20 90 l0 90 60 0 c43 0
61 -4 68 -15 10 -18 42 -10 42 10 0 34 -30 45 -121 45 l-89 0 0 -110z"/>
<path d="M3584 396 c-16 -12 -19 -27 -19 -91 0 -104 13 -115 137 -115 81 0 91
2 113 25 21 20 25 34 25 87 0 100 -9 108 -134 108 -72 0 -108 -4 -122 -14z
m210 -63 c4 -21 3 -51 -2 -68 l-8 -30 -85 0 -84 0 -3 54 c-5 81 -5 81 92 81
l84 0 6 -37z"/>
<path d="M260 396 c0 -2 8 -10 18 -17 15 -13 16 -12 3 4 -13 16 -21 21 -21 13z"/>
<path d="M360 396 c0 -2 8 -10 18 -17 15 -13 16 -12 3 4 -13 16 -21 21 -21 13z"/>
<path d="M320 327 c0 -2 15 -16 33 -33 l32 -29 -29 33 c-28 30 -36 37 -36 29z"/>
<path d="M270 245 c35 -36 67 -65 69 -65 3 0 -24 29 -59 65 -35 36 -67 65 -69
65 -3 0 24 -29 59 -65z"/>
<path d="M230 205 c47 -47 87 -85 90 -85 2 0 -33 38 -80 85 -47 47 -87 85 -90
85 -2 0 33 -38 80 -85z"/>
<path d="M730 51 c0 -23 2 -41 4 -41 8 0 12 71 4 76 -4 3 -8 -13 -8 -35z"/>
<path d="M805 80 c-3 -5 -1 -10 4 -10 6 0 11 5 11 10 0 6 -2 10 -4 10 -3 0 -8
-4 -11 -10z"/>
<path d="M1443 45 c0 -27 2 -38 4 -22 2 15 2 37 0 50 -2 12 -4 0 -4 -28z"/>
<path d="M2270 80 c0 -5 5 -10 11 -10 5 0 7 5 4 10 -3 6 -8 10 -11 10 -2 0 -4
-4 -4 -10z"/>
<path d="M2374 79 c-3 -6 -2 -15 3 -20 5 -5 9 -1 9 11 0 23 -2 24 -12 9z"/>
<path d="M2674 79 c-3 -6 -2 -15 3 -20 5 -5 9 -1 9 11 0 23 -2 24 -12 9z"/>
<path d="M995 51 c-3 -5 -2 -12 3 -15 5 -3 9 1 9 9 0 17 -3 19 -12 6z"/>
<path d="M812 25 c0 -17 2 -22 5 -12 2 9 2 23 0 30 -3 6 -5 -1 -5 -18z"/>
<path d="M1776 33 c-6 -14 -5 -15 5 -6 7 7 10 15 7 18 -3 3 -9 -2 -12 -12z"/>
<path d="M2626 37 c3 -10 9 -15 12 -12 3 3 0 11 -7 18 -10 9 -11 8 -5 -6z"/>
</g>
</svg>
